/* XPM */
static char * close_active_xpm[] = {
"22 22 66 1",
" 	c None",
".	c #1E1E1E",
"+	c #1C1C1C",
"@	c #121311",
"#	c #0B0D0A",
"$	c #080A07",
"%	c #171716",
"&	c #0A0B08",
"*	c #151810",
"=	c #1F2419",
"-	c #242A1D",
";	c #14180F",
">	c #0B0D08",
",	c #1F2519",
"'	c #272D20",
")	c #292F21",
"!	c #293021",
"~	c #202519",
"{	c #282E20",
"]	c #2A3122",
"^	c #2C3324",
"/	c #2D3424",
"(	c #0B0C08",
"_	c #1C1C1B",
":	c #AEBABD",
"<	c #727C76",
"[	c #313827",
"}	c #0C0D0A",
"|	c #C8D6DD",
"1	c #75807A",
"2	c #1F2418",
"3	c #090A07",
"4	c #212120",
"5	c #242B1C",
"6	c #090B07",
"7	c #242522",
"8	c #0D0F0B",
"9	c #0D0F0C",
"0	c #252723",
"a	c #191B16",
"b	c #2E3028",
"c	c #0A0D09",
"d	c #2E3228",
"e	c #212221",
"f	c #2C2F29",
"g	c #262A22",
"h	c #282C23",
"i	c #2B2F28",
"j	c #353930",
"k	c #2B2F27",
"l	c #0B0E09",
"m	c #1F2318",
"n	c #2B3027",
"o	c #343930",
"p	c #1E1E1D",
"q	c #33372E",
"r	c #3D4436",
"s	c #252920",
"t	c #121710",
"u	c #0A0D08",
"v	c #32362E",
"w	c #242623",
"x	c #363A32",
"y	c #41473B",
"z	c #464E3F",
"A	c #242523",
"......................",
"......................",
"......................",
"......+@#$$#@+........",
".....%&*=--=;&%.......",
"....%>,')!!)'~>%......",
"...+&,{]^//^]{~(_.....",
"...@*']:<[[<:]';@.....",
"...}=)^<|11|<^)2#.....",
"...3-!/[1||1[/!-3.....",
"..43-!/[1||1[/!564....",
"..78=)^<|11|<^)297....",
"..0a;']:<[[<:]';a0....",
"..4b&~{]^//^]{~cde....",
"...fg>~')!!)'~>hi.....",
"....jkl;2--m;lnop.....",
".....qrstuutsrv.......",
"......wxyzzyxA........",
"......................",
"......................",
"......................",
"......................"};
