/* XPM */
static char * close_prelight_xpm[] = {
"22 22 97 2",
"  	c None",
". 	c #171B1C",
"+ 	c #4E5E3D",
"@ 	c #3E4934",
"# 	c #3F4934",
"$ 	c #3F4A34",
"% 	c #3A4430",
"& 	c #232A1D",
"* 	c #13170F",
"= 	c #0C0F09",
"- 	c #3A442F",
"; 	c #2B3323",
"> 	c #0D0D08",
", 	c #311711",
"' 	c #4F2118",
") 	c #58241A",
"! 	c #0E0E09",
"~ 	c #2C3324",
"{ 	c #2D3424",
"] 	c #130E09",
"^ 	c #512118",
"/ 	c #56261D",
"( 	c #4F281D",
"_ 	c #4C291D",
": 	c #2D3525",
"< 	c #512119",
"[ 	c #53271C",
"} 	c #49291E",
"| 	c #432B1F",
"1 	c #402D20",
"2 	c #3B4530",
"3 	c #22291C",
"4 	c #331A12",
"5 	c #DD4E4C",
"6 	c #944139",
"7 	c #393223",
"8 	c #95423A",
"9 	c #DC4E4C",
"0 	c #341912",
"a 	c #12150E",
"b 	c #8D4038",
"c 	c #FE5656",
"d 	c #92463D",
"e 	c #93453D",
"f 	c #4E2118",
"g 	c #11160E",
"h 	c #0A0D08",
"i 	c #59241A",
"j 	c #8B443A",
"k 	c #8A443B",
"l 	c #59251A",
"m 	c #0A0C08",
"n 	c #414B35",
"o 	c #88433A",
"p 	c #87443A",
"q 	c #394230",
"r 	c #3E4733",
"s 	c #12140E",
"t 	c #8B3F37",
"u 	c #8A3F37",
"v 	c #12150F",
"w 	c #3E4834",
"x 	c #242A1E",
"y 	c #311810",
"z 	c #252C1E",
"A 	c #3A4432",
"B 	c #414C35",
"C 	c #0E0F09",
"D 	c #0F0F0A",
"E 	c #424D36",
"F 	c #3B4431",
"G 	c #424D37",
"H 	c #343C2B",
"I 	c #363E2C",
"J 	c #434D38",
"K 	c #39422F",
"L 	c #49543D",
"M 	c #363F2D",
"N 	c #5A241A",
"O 	c #0E0E0A",
"P 	c #38422F",
"Q 	c #48543C",
"R 	c #4D5841",
"S 	c #2E3527",
"T 	c #171B14",
"U 	c #0B0D08",
"V 	c #2E3627",
"W 	c #4D5941",
"X 	c #48533D",
"Y 	c #4A563F",
"Z 	c #525F46",
"` 	c #57634A",
" .	c #525E46",
"..	c #4A553F",
"+.	c #3E4734",
"@.	c #3C4532",
"#.	c #181A1A",
". . . . . . . . . . . . . . . . . . . . . . ",
"+ + + + + + + + + + + + + + + + + + + + + + ",
"@ @ @ @ @ @ @ @ @ # # @ @ @ @ @ @ @ @ @ @ @ ",
"$ $ $ $ $ $ % & * = = * & - $ $ $ $ $ $ $ $ ",
"$ $ $ $ $ ; > , ' ) ) ' , ! ~ $ $ $ $ $ $ $ ",
"$ $ $ $ { ] ^ / ( _ _ ( / ^ ] : $ $ $ $ $ $ ",
"$ $ $ - ! < [ } | 1 1 | } [ ^ ! 2 $ $ $ $ $ ",
"$ $ $ 3 4 / } 5 6 7 7 8 9 } / 0 & $ $ $ $ $ ",
"$ $ $ a ' ( | b c d e c b | ( f g $ $ $ $ $ ",
"$ $ $ h i _ 1 7 j c c k 7 1 _ l m $ $ $ $ $ ",
"$ $ n h i _ 1 7 o c c p 7 1 _ l m n $ $ $ $ ",
"q q r s ' ( | t c d e c u | ( f v r q q q q ",
"q q w x y / } 5 6 7 7 8 9 } / , z w q q q q ",
"q q A B C < [ } | 1 1 | } [ ^ D E F q q q q ",
"q q q G H ] ^ / ( _ _ ( / ^ ] I J q q q q q ",
"q q q K L M ! , ' N N ' , O M L P q q q q q ",
"q q q q q Q R S T U U T V W X q q q q q q q ",
"q q q q q q w Y Z ` `  ...+.q q q q q q q q ",
"q q q q q q q q q q q q q q q q q q q q q q ",
"q q q q q q q q q q q q q q q q q q q q q q ",
"@.@.@.@.@.@.@.@.@.@.@.@.@.@.@.@.@.@.@.@.@.@.",
"#.#.#.#.#.#.#.#.#.#.#.#.#.#.#.#.#.#.#.#.#.#."};
