/* XPM */
static char * close_pressed_xpm[] = {
"22 22 101 2",
"  	c None",
". 	c #171B1C",
"+ 	c #4E5E3D",
"@ 	c #3E4934",
"# 	c #3F4934",
"$ 	c #3F4A34",
"% 	c #3A4430",
"& 	c #232A1D",
"* 	c #13170F",
"= 	c #0C0F09",
"- 	c #3A442F",
"; 	c #2B3323",
"> 	c #0A0D08",
", 	c #0E1111",
"' 	c #131719",
") 	c #14191C",
"! 	c #0D1111",
"~ 	c #0A0E09",
"{ 	c #2C3324",
"] 	c #2D3424",
"^ 	c #090C08",
"/ 	c #14191D",
"( 	c #13181C",
"_ 	c #2D3525",
": 	c #0C0E09",
"< 	c #12171A",
"[ 	c #13191D",
"} 	c #12181B",
"| 	c #111619",
"1 	c #3B4530",
"2 	c #22291C",
"3 	c #0D1211",
"4 	c #642C2E",
"5 	c #251A1D",
"6 	c #101417",
"7 	c #261B1E",
"8 	c #0E1210",
"9 	c #12150E",
"0 	c #D24A4B",
"a 	c #D74B4C",
"b 	c #24181B",
"c 	c #25181B",
"d 	c #D84B4C",
"e 	c #D1494A",
"f 	c #121619",
"g 	c #11160E",
"h 	c #271A1D",
"i 	c #D94C4C",
"j 	c #D84B4B",
"k 	c #261A1D",
"l 	c #131A1C",
"m 	c #0A0C08",
"n 	c #414B35",
"o 	c #3C2022",
"p 	c #FE5656",
"q 	c #3B1F21",
"r 	c #394230",
"s 	c #3E4733",
"t 	c #12140E",
"u 	c #271B1E",
"v 	c #121618",
"w 	c #12150F",
"x 	c #3E4834",
"y 	c #242A1E",
"z 	c #0E1110",
"A 	c #D94B4C",
"B 	c #252C1E",
"C 	c #3A4432",
"D 	c #414C35",
"E 	c #652E30",
"F 	c #261C1F",
"G 	c #271D20",
"H 	c #0B0F0A",
"I 	c #424D36",
"J 	c #3B4431",
"K 	c #424D37",
"L 	c #343C2B",
"M 	c #363E2C",
"N 	c #434D38",
"O 	c #39422F",
"P 	c #49543D",
"Q 	c #363F2D",
"R 	c #0B0E09",
"S 	c #0B0E0A",
"T 	c #38422F",
"U 	c #48543C",
"V 	c #4D5841",
"W 	c #2E3527",
"X 	c #171B14",
"Y 	c #0B0D08",
"Z 	c #2E3627",
"` 	c #4D5941",
" .	c #48533D",
"..	c #4A563F",
"+.	c #525F46",
"@.	c #57634A",
"#.	c #525E46",
"$.	c #4A553F",
"%.	c #3E4734",
"&.	c #3C4532",
"*.	c #181A1A",
". . . . . . . . . . . . . . . . . . . . . . ",
"+ + + + + + + + + + + + + + + + + + + + + + ",
"@ @ @ @ @ @ @ @ @ # # @ @ @ @ @ @ @ @ @ @ @ ",
"$ $ $ $ $ $ % & * = = * & - $ $ $ $ $ $ $ $ ",
"$ $ $ $ $ ; > , ' ) ) ' ! ~ { $ $ $ $ $ $ $ ",
"$ $ $ $ ] ^ ' / ( ( ( ( / ' ^ _ $ $ $ $ $ $ ",
"$ $ $ - : < [ } < | | < } [ ' : 1 $ $ $ $ $ ",
"$ $ $ 2 3 / } 4 5 6 6 7 4 } / 8 & $ $ $ $ $ ",
"$ $ $ 9 ' ( < 0 a b c d e < ( f g $ $ $ $ $ ",
"$ $ $ > [ ( | h i j j i k | ( l m $ $ $ $ $ ",
"$ $ n > [ ( | 6 o p p q 6 | ( l m n $ $ $ $ ",
"r r s t ' ( < u i j j i 7 < ( v w s r r r r ",
"r r x y z / } 0 d k k A e } / , B x r r r r ",
"r r C D = < [ E F | | G E [ ' H I J r r r r ",
"r r r K L ^ ' / ( ( ( ( / ' ^ M N r r r r r ",
"r r r O P Q R , ' [ [ ' ! S Q P T r r r r r ",
"r r r r r U V W X Y Y X Z `  .r r r r r r r ",
"r r r r r r x ..+.@.@.#.$.%.r r r r r r r r ",
"r r r r r r r r r r r r r r r r r r r r r r ",
"r r r r r r r r r r r r r r r r r r r r r r ",
"&.&.&.&.&.&.&.&.&.&.&.&.&.&.&.&.&.&.&.&.&.&.",
"*.*.*.*.*.*.*.*.*.*.*.*.*.*.*.*.*.*.*.*.*.*."};
