/* XPM */
static char * hide_prelight_xpm[] = {
"22 22 100 2",
"  	c None",
". 	c #171B1C",
"+ 	c #4E5E3D",
"@ 	c #3E4934",
"# 	c #3F4934",
"$ 	c #3F4A34",
"% 	c #3A4430",
"& 	c #232A1D",
"* 	c #131911",
"= 	c #0D110D",
"- 	c #3A442F",
"; 	c #2B3323",
"> 	c #0C110C",
", 	c #141B18",
"' 	c #1E2A24",
") 	c #242F28",
"! 	c #0C110D",
"~ 	c #2C3324",
"{ 	c #2D3424",
"] 	c #0C110E",
"^ 	c #1F2B24",
"/ 	c #26342F",
"( 	c #273733",
"_ 	c #273936",
": 	c #2D3525",
"< 	c #0D110E",
"[ 	c #1E2B25",
"} 	c #263630",
"| 	c #283B38",
"1 	c #293F3D",
"2 	c #294040",
"3 	c #0D100E",
"4 	c #3B4530",
"5 	c #22291C",
"6 	c #141D18",
"7 	c #2B4446",
"8 	c #2D474A",
"9 	c #151C18",
"0 	c #121610",
"a 	c #87C645",
"b 	c #5A894A",
"c 	c #2D4E53",
"d 	c #111711",
"e 	c #0B100B",
"f 	c #242F29",
"g 	c #639347",
"h 	c #9EE744",
"i 	c #5C8F53",
"j 	c #5B8F52",
"k 	c #629147",
"l 	c #243028",
"m 	c #0B100D",
"n 	c #414B35",
"o 	c #669C4B",
"p 	c #63964C",
"q 	c #394230",
"r 	c #3E4733",
"s 	c #121611",
"t 	c #2C4A4E",
"u 	c #699F4B",
"v 	c #669B4B",
"w 	c #1E2A23",
"x 	c #121711",
"y 	c #3E4834",
"z 	c #242A1E",
"A 	c #141C17",
"B 	c #252C1E",
"C 	c #3A4432",
"D 	c #414C35",
"E 	c #0C120E",
"F 	c #0E110E",
"G 	c #424D36",
"H 	c #3B4431",
"I 	c #424D37",
"J 	c #343C2B",
"K 	c #363E2C",
"L 	c #434D38",
"M 	c #39422F",
"N 	c #49543D",
"O 	c #363F2D",
"P 	c #0D120D",
"Q 	c #253029",
"R 	c #0D120E",
"S 	c #38422F",
"T 	c #48543C",
"U 	c #4D5841",
"V 	c #2E3527",
"W 	c #171D16",
"X 	c #0C100C",
"Y 	c #2E3627",
"Z 	c #4D5941",
"` 	c #48533D",
" .	c #4A563F",
"..	c #525F46",
"+.	c #57634A",
"@.	c #525E46",
"#.	c #4A553F",
"$.	c #3E4734",
"%.	c #3C4532",
"&.	c #181A1A",
". . . . . . . . . . . . . . . . . . . . . . ",
"+ + + + + + + + + + + + + + + + + + + + + + ",
"@ @ @ @ @ @ @ @ @ # # @ @ @ @ @ @ @ @ @ @ @ ",
"$ $ $ $ $ $ % & * = = * & - $ $ $ $ $ $ $ $ ",
"$ $ $ $ $ ; > , ' ) ) ' , ! ~ $ $ $ $ $ $ $ ",
"$ $ $ $ { ] ^ / ( _ _ ( / ^ ] : $ $ $ $ $ $ ",
"$ $ $ - < [ } | 1 2 2 1 | } ^ 3 4 $ $ $ $ $ ",
"$ $ $ 5 6 / | 2 7 8 8 7 2 | / 9 & $ $ $ $ $ ",
"$ $ $ 0 ' ( 1 a b c c b a 1 ( ' d $ $ $ $ $ ",
"$ $ $ e f _ 2 g h i j h k 2 _ l m $ $ $ $ $ ",
"$ $ n e f _ 2 8 o h h p 8 2 _ l m n $ $ $ $ ",
"q q r s ' ( 1 7 t u v t 7 1 ( w x r q q q q ",
"q q y z A / | 2 7 8 8 7 2 | / , B y q q q q ",
"q q C D E [ } | 1 2 2 1 | } ^ F G H q q q q ",
"q q q I J ] ^ / ( _ _ ( / ^ ] K L q q q q q ",
"q q q M N O P , ' Q Q ' , R O N S q q q q q ",
"q q q q q T U V W X X W Y Z ` q q q q q q q ",
"q q q q q q y  ...+.+.@.#.$.q q q q q q q q ",
"q q q q q q q q q q q q q q q q q q q q q q ",
"q q q q q q q q q q q q q q q q q q q q q q ",
"%.%.%.%.%.%.%.%.%.%.%.%.%.%.%.%.%.%.%.%.%.%.",
"&.&.&.&.&.&.&.&.&.&.&.&.&.&.&.&.&.&.&.&.&.&."};
