/* XPM */
static char * hide_pressed_xpm[] = {
"22 22 93 2",
"  	c None",
". 	c #171B1C",
"+ 	c #4E5E3D",
"@ 	c #3E4934",
"# 	c #3F4934",
"$ 	c #3F4A34",
"% 	c #3A4430",
"& 	c #232A1D",
"* 	c #13170F",
"= 	c #0C0F09",
"- 	c #3A442F",
"; 	c #2B3323",
"> 	c #0A0D08",
", 	c #0C0F0F",
"' 	c #101416",
") 	c #131618",
"! 	c #0A0D09",
"~ 	c #2C3324",
"{ 	c #2D3424",
"] 	c #090B08",
"^ 	c #111516",
"/ 	c #13171A",
"( 	c #14181A",
"_ 	c #2D3525",
": 	c #0C0E09",
"< 	c #101516",
"[ 	c #13181A",
"} 	c #15181A",
"| 	c #0A0E09",
"1 	c #3B4530",
"2 	c #22291C",
"3 	c #0C100F",
"4 	c #16191A",
"5 	c #17191A",
"6 	c #0D100E",
"7 	c #12150E",
"8 	c #3E5526",
"9 	c #20261C",
"0 	c #18191A",
"a 	c #101415",
"b 	c #11160E",
"c 	c #121619",
"d 	c #8AC83D",
"e 	c #84BE3B",
"f 	c #22271D",
"g 	c #84BF3B",
"h 	c #89C73D",
"i 	c #121719",
"j 	c #0A0C08",
"k 	c #414B35",
"l 	c #293420",
"m 	c #8FCF3F",
"n 	c #283320",
"o 	c #394230",
"p 	c #3E4733",
"q 	c #12140E",
"r 	c #8ECE3E",
"s 	c #12150F",
"t 	c #3E4834",
"u 	c #242A1E",
"v 	c #252C1E",
"w 	c #3A4432",
"x 	c #414C35",
"y 	c #0B0F09",
"z 	c #0B0F0A",
"A 	c #424D36",
"B 	c #3B4431",
"C 	c #424D37",
"D 	c #343C2B",
"E 	c #363E2C",
"F 	c #434D38",
"G 	c #39422F",
"H 	c #49543D",
"I 	c #363F2D",
"J 	c #0B0E09",
"K 	c #0B0D0A",
"L 	c #38422F",
"M 	c #48543C",
"N 	c #4D5841",
"O 	c #2E3527",
"P 	c #171B14",
"Q 	c #0B0D08",
"R 	c #2E3627",
"S 	c #4D5941",
"T 	c #48533D",
"U 	c #4A563F",
"V 	c #525F46",
"W 	c #57634A",
"X 	c #525E46",
"Y 	c #4A553F",
"Z 	c #3E4734",
"` 	c #3C4532",
" .	c #181A1A",
". . . . . . . . . . . . . . . . . . . . . . ",
"+ + + + + + + + + + + + + + + + + + + + + + ",
"@ @ @ @ @ @ @ @ @ # # @ @ @ @ @ @ @ @ @ @ @ ",
"$ $ $ $ $ $ % & * = = * & - $ $ $ $ $ $ $ $ ",
"$ $ $ $ $ ; > , ' ) ) ' , ! ~ $ $ $ $ $ $ $ ",
"$ $ $ $ { ] ^ / ( ( ( ( / ' ] _ $ $ $ $ $ $ ",
"$ $ $ - : < [ ( } } } } ( [ ^ | 1 $ $ $ $ $ ",
"$ $ $ 2 3 / ( } 4 5 5 4 } ( / 6 & $ $ $ $ $ ",
"$ $ $ 7 ' ( } 8 9 0 0 9 8 } ( a b $ $ $ $ $ ",
"$ $ $ > c ( } d e f f g h } ( i j $ $ $ $ $ ",
"$ $ k > c ( } l m g g m n } ( i j k $ $ $ $ ",
"o o p q ' ( } 4 l m r n 4 } ( a s p o o o o ",
"o o t u 6 / ( } 4 n n 4 } ( / , v t o o o o ",
"o o w x y < [ ( } } } } ( [ ^ z A B o o o o ",
"o o o C D ] ^ / ( ( ( ( / ' ] E F o o o o o ",
"o o o G H I J , ' c c ' , K I H L o o o o o ",
"o o o o o M N O P Q Q P R S T o o o o o o o ",
"o o o o o o t U V W W X Y Z o o o o o o o o ",
"o o o o o o o o o o o o o o o o o o o o o o ",
"o o o o o o o o o o o o o o o o o o o o o o ",
"` ` ` ` ` ` ` ` ` ` ` ` ` ` ` ` ` ` ` ` ` ` ",
" . . . . . . . . . . . . . . . . . . . . . ."};
