/* XPM */
static char * maximize_prelight_xpm[] = {
"22 22 103 2",
"  	c None",
". 	c #171B1C",
"+ 	c #4E5E3D",
"@ 	c #3E4934",
"# 	c #3F4934",
"$ 	c #3F4A34",
"% 	c #3A4430",
"& 	c #232A1D",
"* 	c #131911",
"= 	c #0D110D",
"- 	c #3A442F",
"; 	c #2B3323",
"> 	c #0C110C",
", 	c #141B18",
"' 	c #1E2A24",
") 	c #242F28",
"! 	c #0C110D",
"~ 	c #2C3324",
"{ 	c #2D3424",
"] 	c #0C110E",
"^ 	c #1F2B24",
"/ 	c #26342F",
"( 	c #273733",
"_ 	c #273936",
": 	c #2D3525",
"< 	c #0D110E",
"[ 	c #1E2B25",
"} 	c #263630",
"| 	c #283B38",
"1 	c #293F3D",
"2 	c #294040",
"3 	c #0D100E",
"4 	c #3B4530",
"5 	c #22291C",
"6 	c #141D18",
"7 	c #2B4446",
"8 	c #2D474A",
"9 	c #151C18",
"0 	c #121610",
"a 	c #2C4A4E",
"b 	c #5F924D",
"c 	c #61954C",
"d 	c #111711",
"e 	c #0B100B",
"f 	c #242F29",
"g 	c #5B8E4D",
"h 	c #9EE744",
"i 	c #9FE844",
"j 	c #5E914D",
"k 	c #243028",
"l 	c #0B100D",
"m 	c #414B35",
"n 	c #5B8A48",
"o 	c #639851",
"p 	c #639852",
"q 	c #5C8947",
"r 	c #394230",
"s 	c #3E4733",
"t 	c #121611",
"u 	c #8ACA45",
"v 	c #619249",
"w 	c #2D4E53",
"x 	c #629349",
"y 	c #8ACA44",
"z 	c #1E2A23",
"A 	c #121711",
"B 	c #3E4834",
"C 	c #242A1E",
"D 	c #141C17",
"E 	c #252C1E",
"F 	c #3A4432",
"G 	c #414C35",
"H 	c #0C120E",
"I 	c #0E110E",
"J 	c #424D36",
"K 	c #3B4431",
"L 	c #424D37",
"M 	c #343C2B",
"N 	c #363E2C",
"O 	c #434D38",
"P 	c #39422F",
"Q 	c #49543D",
"R 	c #363F2D",
"S 	c #0D120D",
"T 	c #253029",
"U 	c #0D120E",
"V 	c #38422F",
"W 	c #48543C",
"X 	c #4D5841",
"Y 	c #2E3527",
"Z 	c #171D16",
"` 	c #0C100C",
" .	c #2E3627",
"..	c #4D5941",
"+.	c #48533D",
"@.	c #4A563F",
"#.	c #525F46",
"$.	c #57634A",
"%.	c #525E46",
"&.	c #4A553F",
"*.	c #3E4734",
"=.	c #3C4532",
"-.	c #181A1A",
". . . . . . . . . . . . . . . . . . . . . . ",
"+ + + + + + + + + + + + + + + + + + + + + + ",
"@ @ @ @ @ @ @ @ @ # # @ @ @ @ @ @ @ @ @ @ @ ",
"$ $ $ $ $ $ % & * = = * & - $ $ $ $ $ $ $ $ ",
"$ $ $ $ $ ; > , ' ) ) ' , ! ~ $ $ $ $ $ $ $ ",
"$ $ $ $ { ] ^ / ( _ _ ( / ^ ] : $ $ $ $ $ $ ",
"$ $ $ - < [ } | 1 2 2 1 | } ^ 3 4 $ $ $ $ $ ",
"$ $ $ 5 6 / | 2 7 8 8 7 2 | / 9 & $ $ $ $ $ ",
"$ $ $ 0 ' ( 1 7 a b c a 7 1 ( ' d $ $ $ $ $ ",
"$ $ $ e f _ 2 8 g h i j 8 2 _ k l $ $ $ $ $ ",
"$ $ m e f _ 2 n h o p h q 2 _ k l m $ $ $ $ ",
"r r s t ' ( 1 u v w w x y 1 ( z A s r r r r ",
"r r B C D / | 2 7 8 8 7 2 | / , E B r r r r ",
"r r F G H [ } | 1 2 2 1 | } ^ I J K r r r r ",
"r r r L M ] ^ / ( _ _ ( / ^ ] N O r r r r r ",
"r r r P Q R S , ' T T ' , U R Q V r r r r r ",
"r r r r r W X Y Z ` ` Z  ...+.r r r r r r r ",
"r r r r r r B @.#.$.$.%.&.*.r r r r r r r r ",
"r r r r r r r r r r r r r r r r r r r r r r ",
"r r r r r r r r r r r r r r r r r r r r r r ",
"=.=.=.=.=.=.=.=.=.=.=.=.=.=.=.=.=.=.=.=.=.=.",
"-.-.-.-.-.-.-.-.-.-.-.-.-.-.-.-.-.-.-.-.-.-."};
