/* XPM */
static char * maximize_pressed_xpm[] = {
"22 22 94 2",
"  	c None",
". 	c #171B1C",
"+ 	c #4E5E3D",
"@ 	c #3E4934",
"# 	c #3F4934",
"$ 	c #3F4A34",
"% 	c #3A4430",
"& 	c #232A1D",
"* 	c #13170F",
"= 	c #0C0F09",
"- 	c #3A442F",
"; 	c #2B3323",
"> 	c #0A0D08",
", 	c #0C0F0F",
"' 	c #101416",
") 	c #131618",
"! 	c #0A0D09",
"~ 	c #2C3324",
"{ 	c #2D3424",
"] 	c #090B08",
"^ 	c #111516",
"/ 	c #13171A",
"( 	c #14181A",
"_ 	c #2D3525",
": 	c #0C0E09",
"< 	c #101516",
"[ 	c #13181A",
"} 	c #15181A",
"| 	c #0A0E09",
"1 	c #3B4530",
"2 	c #22291C",
"3 	c #0C100F",
"4 	c #16191A",
"5 	c #17191A",
"6 	c #0D100E",
"7 	c #12150E",
"8 	c #252D1E",
"9 	c #101415",
"0 	c #11160E",
"a 	c #121619",
"b 	c #262E1E",
"c 	c #8AC83D",
"d 	c #89C73D",
"e 	c #121719",
"f 	c #0A0C08",
"g 	c #414B35",
"h 	c #252E1E",
"i 	c #242D1E",
"j 	c #394230",
"k 	c #3E4733",
"l 	c #12140E",
"m 	c #85C13C",
"n 	c #89C63D",
"o 	c #242C1E",
"p 	c #84C03C",
"q 	c #12150F",
"r 	c #3E4834",
"s 	c #242A1E",
"t 	c #456129",
"u 	c #222B1E",
"v 	c #222C1E",
"w 	c #252C1E",
"x 	c #3A4432",
"y 	c #414C35",
"z 	c #0B0F09",
"A 	c #0B0F0A",
"B 	c #424D36",
"C 	c #3B4431",
"D 	c #424D37",
"E 	c #343C2B",
"F 	c #363E2C",
"G 	c #434D38",
"H 	c #39422F",
"I 	c #49543D",
"J 	c #363F2D",
"K 	c #0B0E09",
"L 	c #0B0D0A",
"M 	c #38422F",
"N 	c #48543C",
"O 	c #4D5841",
"P 	c #2E3527",
"Q 	c #171B14",
"R 	c #0B0D08",
"S 	c #2E3627",
"T 	c #4D5941",
"U 	c #48533D",
"V 	c #4A563F",
"W 	c #525F46",
"X 	c #57634A",
"Y 	c #525E46",
"Z 	c #4A553F",
"` 	c #3E4734",
" .	c #3C4532",
"..	c #181A1A",
". . . . . . . . . . . . . . . . . . . . . . ",
"+ + + + + + + + + + + + + + + + + + + + + + ",
"@ @ @ @ @ @ @ @ @ # # @ @ @ @ @ @ @ @ @ @ @ ",
"$ $ $ $ $ $ % & * = = * & - $ $ $ $ $ $ $ $ ",
"$ $ $ $ $ ; > , ' ) ) ' , ! ~ $ $ $ $ $ $ $ ",
"$ $ $ $ { ] ^ / ( ( ( ( / ' ] _ $ $ $ $ $ $ ",
"$ $ $ - : < [ ( } } } } ( [ ^ | 1 $ $ $ $ $ ",
"$ $ $ 2 3 / ( } 4 5 5 4 } ( / 6 & $ $ $ $ $ ",
"$ $ $ 7 ' ( } 4 5 8 8 5 4 } ( 9 0 $ $ $ $ $ ",
"$ $ $ > a ( } 5 b c d 8 5 } ( e f $ $ $ $ $ ",
"$ $ g > a ( } h c d d c i } ( e f g $ $ $ $ ",
"j j k l ' ( } m n o 8 d p } ( 9 q k j j j j ",
"j j r s 6 / ( t u 5 5 v t ( / , w r j j j j ",
"j j x y z < [ ( } } } } ( [ ^ A B C j j j j ",
"j j j D E ] ^ / ( ( ( ( / ' ] F G j j j j j ",
"j j j H I J K , ' a a ' , L J I M j j j j j ",
"j j j j j N O P Q R R Q S T U j j j j j j j ",
"j j j j j j r V W X X Y Z ` j j j j j j j j ",
"j j j j j j j j j j j j j j j j j j j j j j ",
"j j j j j j j j j j j j j j j j j j j j j j ",
" . . . . . . . . . . . . . . . . . . . . . .",
"............................................"};
