/* XPM */
static char * menu_prelight_xpm[] = {
"22 22 141 2",
"  	c None",
". 	c #171B1C",
"+ 	c #4E5E3D",
"@ 	c #3E4934",
"# 	c #3F4A34",
"$ 	c #3A4430",
"% 	c #242C1F",
"& 	c #111610",
"* 	c #0B0F0B",
"= 	c #0B0F0C",
"- 	c #111611",
"; 	c #2E3726",
"> 	c #090D0B",
", 	c #131B17",
"' 	c #242F28",
") 	c #27342C",
"! 	c #233028",
"~ 	c #2C3524",
"{ 	c #090E0D",
"] 	c #222E27",
"^ 	c #26352F",
"/ 	c #273833",
"( 	c #283A36",
"_ 	c #0A0F0D",
": 	c #293122",
"< 	c #3C4732",
"[ 	c #080C0A",
"} 	c #212D26",
"| 	c #273731",
"1 	c #293B38",
"2 	c #293F3D",
"3 	c #2A4140",
"4 	c #2A4041",
"5 	c #293F3E",
"6 	c #283B38",
"7 	c #263631",
"8 	c #080D0A",
"9 	c #242B1E",
"0 	c #151D19",
"a 	c #27352F",
"b 	c #263B40",
"c 	c #2B4546",
"d 	c #2C484A",
"e 	c #2B4547",
"f 	c #263C40",
"g 	c #27362F",
"h 	c #171F1A",
"i 	c #1D2318",
"j 	c #232F28",
"k 	c #273834",
"l 	c #273C3D",
"m 	c #A7F344",
"n 	c #A6F143",
"o 	c #A5F044",
"p 	c #2D443E",
"q 	c #283833",
"r 	c #202C25",
"s 	c #0A0E0B",
"t 	c #3E4933",
"u 	c #0A0E0C",
"v 	c #25322B",
"w 	c #34524A",
"x 	c #6DA34A",
"y 	c #A0EA44",
"z 	c #A1EB44",
"A 	c #72AC49",
"B 	c #37574A",
"C 	c #233029",
"D 	c #090E0C",
"E 	c #25312A",
"F 	c #283E40",
"G 	c #5C8A48",
"H 	c #A2EC44",
"I 	c #598A54",
"J 	c #5D9153",
"K 	c #A4EF43",
"L 	c #649647",
"M 	c #293F40",
"N 	c #23302A",
"O 	c #394230",
"P 	c #3F4935",
"Q 	c #090C0A",
"R 	c #283D3D",
"S 	c #9FE844",
"T 	c #5E8D4A",
"U 	c #2B4B54",
"V 	c #294855",
"W 	c #5D8C4A",
"X 	c #9CE444",
"Y 	c #2D443D",
"Z 	c #212C26",
"` 	c #3E4834",
" .	c #252D20",
"..	c #151E19",
"+.	c #273630",
"@.	c #233740",
"#.	c #2A4447",
"$.	c #2C484B",
"%.	c #2A4347",
"&.	c #1F251A",
"*.	c #3F4934",
"=.	c #3B4432",
"-.	c #434E38",
";.	c #090F0B",
">.	c #212D25",
",.	c #2A4141",
"'.	c #273631",
").	c #090D0A",
"!.	c #48543C",
"~.	c #3A4330",
"{.	c #444E39",
"].	c #222E26",
"^.	c #273933",
"/.	c #222F28",
"(.	c #080D0C",
"_.	c #353E2C",
":.	c #45503A",
"<.	c #4C573F",
"[.	c #141C18",
"}.	c #202B24",
"|.	c #26332B",
"1.	c #26322B",
"2.	c #202B25",
"3.	c #141C19",
"4.	c #070B09",
"5.	c #4C5840",
"6.	c #4A563F",
"7.	c #525E45",
"8.	c #262D21",
"9.	c #141913",
"0.	c #0B110E",
"a.	c #0C110E",
"b.	c #262D20",
"c.	c #535F46",
"d.	c #4F5B43",
"e.	c #58644B",
"f.	c #5A674D",
"g.	c #58654B",
"h.	c #3A4331",
"i.	c #3C4532",
"j.	c #181A1A",
". . . . . . . . . . . . . . . . . . . . . . ",
"+ + + + + + + + + + + + + + + + + + + + + + ",
"@ @ @ @ @ @ @ @ @ @ @ @ @ @ @ @ @ @ @ @ @ @ ",
"# # # # # # $ % & * = - % $ # # # # # # # # ",
"# # # # # ; > , ' ) ) ! , > ; # # # # # # # ",
"# # # # ~ { ] ^ / ( ( / ^ ! _ : # # # # # # ",
"# # # < [ } | 1 2 3 4 5 6 7 } 8 # # # # # # ",
"# # # 9 0 a 6 b c d d e f 6 g h i # # # # # ",
"# # # 8 j k l m m n n m o p q r s t # # # # ",
"# # < u v ( 4 w x y z A B 3 ( C D < # # # # ",
"# # t u E ( F G H I J K L M ( N D t # # # # ",
"O O P Q j / R S T U V W X Y k Z s ` O O O O ",
"O O P  ...+.6 @.#.d $.%.@.6 g h &.*.O O O O ",
"O O =.-.;.>.7 6 5 ,.3 2 6 '.} ).!.~.O O O O ",
"O O O {.O D ].a ^.( ( k ^ /.(._.:.O O O O O ",
"O O O O <.O [ [.}.|.1.2.3.4.O 5.O O O O O O ",
"O O O O O 6.7.8.9.0.a.9.b.c.6.O O O O O O O ",
"O O O O O O =.d.e.f.f.g.d.h.O O O O O O O O ",
"O O O O O O O O O O O O O O O O O O O O O O ",
"O O O O O O O O O O O O O O O O O O O O O O ",
"i.i.i.i.i.i.i.i.i.i.i.i.i.i.i.i.i.i.i.i.i.i.",
"j.j.j.j.j.j.j.j.j.j.j.j.j.j.j.j.j.j.j.j.j.j."};
