/* XPM */
static char * menu_prelight_xpm[] = {
"22 22 150 2",
"  	c None",
". 	c #171B1C",
"+ 	c #4E5E3D",
"@ 	c #3E4934",
"# 	c #3F4934",
"$ 	c #3F4A34",
"% 	c #3A4430",
"& 	c #242C1F",
"* 	c #111610",
"= 	c #0B0F0B",
"- 	c #0B0F0C",
"; 	c #111611",
"> 	c #2E3726",
", 	c #090D0B",
"' 	c #131B17",
") 	c #242F28",
"! 	c #27352C",
"~ 	c #27342C",
"{ 	c #233028",
"] 	c #2C3524",
"^ 	c #090E0D",
"/ 	c #222E27",
"( 	c #26352F",
"_ 	c #263733",
": 	c #79B03F",
"< 	c #5B853C",
"[ 	c #0A0F0D",
"} 	c #293122",
"| 	c #3C4732",
"1 	c #080C0A",
"2 	c #212D26",
"3 	c #273731",
"4 	c #273938",
"5 	c #75AB41",
"6 	c #A2EC44",
"7 	c #608E40",
"8 	c #283A38",
"9 	c #263631",
"0 	c #080D0A",
"a 	c #242B1E",
"b 	c #151D19",
"c 	c #27352F",
"d 	c #6B9D41",
"e 	c #A3EE44",
"f 	c #41654A",
"g 	c #527C49",
"h 	c #A6F144",
"i 	c #598440",
"j 	c #283B38",
"k 	c #27362F",
"l 	c #171F1A",
"m 	c #1D2318",
"n 	c #232F28",
"o 	c #273834",
"p 	c #2D443D",
"q 	c #98DE45",
"r 	c #3E624D",
"s 	c #5E904C",
"t 	c #5F914C",
"u 	c #4E784D",
"v 	c #91D445",
"w 	c #2B413E",
"x 	c #283833",
"y 	c #202C25",
"z 	c #0A0E0B",
"A 	c #3E4933",
"B 	c #0A0E0C",
"C 	c #25322B",
"D 	c #283A36",
"E 	c #2A4141",
"F 	c #2C474A",
"G 	c #5C8D4D",
"H 	c #A1EA44",
"I 	c #A1EB44",
"J 	c #64984B",
"K 	c #2C484B",
"L 	c #2A4140",
"M 	c #233029",
"N 	c #090E0C",
"O 	c #25312A",
"P 	c #273E40",
"Q 	c #5C8B48",
"R 	c #598A54",
"S 	c #5D9153",
"T 	c #A4EF43",
"U 	c #659647",
"V 	c #293F40",
"W 	c #23302A",
"X 	c #394230",
"Y 	c #3F4935",
"Z 	c #090C0A",
"` 	c #273833",
" .	c #283D3D",
"..	c #9FE844",
"+.	c #5E8D4A",
"@.	c #2B4B54",
"#.	c #294855",
"$.	c #5D8C4A",
"%.	c #9CE444",
"&.	c #212C26",
"*.	c #3E4834",
"=.	c #252D20",
"-.	c #151E19",
";.	c #273630",
">.	c #233740",
",.	c #2A4447",
"'.	c #2C484A",
").	c #2A4347",
"!.	c #1F251A",
"~.	c #3B4432",
"{.	c #434E38",
"].	c #090F0B",
"^.	c #212D25",
"/.	c #293F3E",
"(.	c #293F3D",
"_.	c #273631",
":.	c #090D0A",
"<.	c #48543C",
"[.	c #3A4330",
"}.	c #444E39",
"|.	c #222E26",
"1.	c #273933",
"2.	c #222F28",
"3.	c #080D0C",
"4.	c #353E2C",
"5.	c #45503A",
"6.	c #4C573F",
"7.	c #141C18",
"8.	c #202B24",
"9.	c #26332B",
"0.	c #26322B",
"a.	c #202B25",
"b.	c #141C19",
"c.	c #070B09",
"d.	c #4C5840",
"e.	c #4A563F",
"f.	c #525E45",
"g.	c #262D21",
"h.	c #141913",
"i.	c #0B110E",
"j.	c #0C110E",
"k.	c #262D20",
"l.	c #535F46",
"m.	c #4F5B43",
"n.	c #58644B",
"o.	c #5A674D",
"p.	c #58654B",
"q.	c #3A4331",
"r.	c #3C4532",
"s.	c #181A1A",
". . . . . . . . . . . . . . . . . . . . . . ",
"+ + + + + + + + + + + + + + + + + + + + + + ",
"@ @ @ @ @ @ @ @ @ # # @ @ @ @ @ @ @ @ @ @ @ ",
"$ $ $ $ $ $ % & * = - ; & % $ $ $ $ $ $ $ $ ",
"$ $ $ $ $ > , ' ) ! ~ { ' , > $ $ $ $ $ $ $ ",
"$ $ $ $ ] ^ / ( _ : < _ ( { [ } $ $ $ $ $ $ ",
"$ $ $ | 1 2 3 4 5 6 6 7 8 9 2 0 $ $ $ $ $ $ ",
"$ $ $ a b c 4 d e f g h i j k l m $ $ $ $ $ ",
"$ $ $ 0 n o p q r s t u v w x y z A $ $ $ $ ",
"$ $ | B C D E F G H I J K L D M N | $ $ $ $ ",
"$ $ A B O D P Q 6 R S T U V D W N A $ $ $ $ ",
"X X Y Z n `  ...+.@.#.$.%.p o &.z *.X X X X ",
"X X Y =.-.;.j >.,.'.K ).>.j k l !.# X X X X ",
"X X ~.{.].^.9 j /.E L (.j _.2 :.<.[.X X X X ",
"X X X }.X N |.c 1.D D o ( 2.3.4.5.X X X X X ",
"X X X X 6.X 1 7.8.9.0.a.b.c.X d.X X X X X X ",
"X X X X X e.f.g.h.i.j.h.k.l.e.X X X X X X X ",
"X X X X X X ~.m.n.o.o.p.m.q.X X X X X X X X ",
"X X X X X X X X X X X X X X X X X X X X X X ",
"X X X X X X X X X X X X X X X X X X X X X X ",
"r.r.r.r.r.r.r.r.r.r.r.r.r.r.r.r.r.r.r.r.r.r.",
"s.s.s.s.s.s.s.s.s.s.s.s.s.s.s.s.s.s.s.s.s.s."};
