/* XPM */
static char * menu_inactive_xpm[] = {
"22 22 127 2",
"  	c None",
". 	c #171B1C",
"+ 	c #4E5E3D",
"@ 	c #3E4934",
"# 	c #3F4934",
"$ 	c #3F4A34",
"% 	c #3A4430",
"& 	c #242B1D",
"* 	c #11140D",
"= 	c #0A0C08",
"- 	c #11150D",
"; 	c #2E3626",
"> 	c #080A06",
", 	c #12160E",
"' 	c #242A1D",
") 	c #272E20",
"! 	c #282E20",
"~ 	c #12160F",
"{ 	c #2C3424",
"] 	c #090A06",
"^ 	c #23291C",
"/ 	c #293021",
"( 	c #444B3F",
"_ 	c #434A3D",
": 	c #292F21",
"< 	c #0A0C07",
"[ 	c #3C4732",
"} 	c #070905",
"| 	c #21271B",
"1 	c #2A3021",
"2 	c #656F64",
"3 	c #667065",
"4 	c #444C40",
"5 	c #2A3122",
"6 	c #22271B",
"7 	c #141811",
"8 	c #282F20",
"9 	c #40483B",
"0 	c #646E63",
"a 	c #464E3F",
"b 	c #454D3F",
"c 	c #656E64",
"d 	c #41483B",
"e 	c #282E21",
"f 	c #161A12",
"g 	c #1D2318",
"h 	c #293022",
"i 	c #2C3323",
"j 	c #5F675E",
"k 	c #474F42",
"l 	c #474F41",
"m 	c #485042",
"n 	c #444C3E",
"o 	c #5C645B",
"p 	c #2E3526",
"q 	c #21261B",
"r 	c #090C07",
"s 	c #3E4933",
"t 	c #3D4732",
"u 	c #090B07",
"v 	c #262C1E",
"w 	c #2A3022",
"x 	c #2E3525",
"y 	c #313828",
"z 	c #485041",
"A 	c #656E63",
"B 	c #4B5344",
"C 	c #313928",
"D 	c #2D3425",
"E 	c #242A1E",
"F 	c #080B06",
"G 	c #2A3123",
"H 	c #2D3324",
"I 	c #626C62",
"J 	c #4A5243",
"K 	c #646D64",
"L 	c #475043",
"M 	c #394230",
"N 	c #3F4935",
"O 	c #2C3324",
"P 	c #464E40",
"Q 	c #343B2A",
"R 	c #333B28",
"S 	c #5D655C",
"T 	c #2E3426",
"U 	c #3E4834",
"V 	c #252B1E",
"W 	c #151911",
"X 	c #282F21",
"Y 	c #2B3122",
"Z 	c #2A3121",
"` 	c #2F3626",
" .	c #1F251A",
"..	c #3B4432",
"+.	c #434E38",
"@.	c #22271A",
"#.	c #2E3425",
"$.	c #48543C",
"%.	c #3A4330",
"&.	c #444E39",
"*.	c #22281C",
"=.	c #272D20",
"-.	c #23291D",
";.	c #353E2C",
">.	c #45503A",
",.	c #4C573F",
"'.	c #080905",
").	c #141710",
"!.	c #20261A",
"~.	c #272D1F",
"{.	c #070805",
"].	c #4C5840",
"^.	c #4A563F",
"/.	c #525E45",
"(.	c #262C20",
"_.	c #13160F",
":.	c #0A0D08",
"<.	c #0B0D08",
"[.	c #252C20",
"}.	c #535F46",
"|.	c #4F5B43",
"1.	c #58644B",
"2.	c #5A674D",
"3.	c #58654B",
"4.	c #3A4331",
"5.	c #3C4532",
"6.	c #181A1A",
". . . . . . . . . . . . . . . . . . . . . . ",
"+ + + + + + + + + + + + + + + + + + + + + + ",
"@ @ @ @ @ @ @ @ @ # # @ @ @ @ @ @ @ @ @ @ @ ",
"$ $ $ $ $ $ % & * = = - & % $ $ $ $ $ $ $ $ ",
"$ $ $ $ $ ; > , ' ) ! ' ~ > ; $ $ $ $ $ $ $ ",
"$ $ $ $ { ] ^ ) / ( _ : ! ' < / $ $ $ $ $ $ ",
"$ $ $ [ } | ! 1 ( 2 3 4 5 ! 6 > $ $ $ $ $ $ ",
"$ $ $ ' 7 8 / 9 0 a b c d 5 e f g $ $ $ $ $ ",
"$ $ $ > ' h i j k l m n o p : q r s $ $ $ $ ",
"$ $ t u v w x y z 0 A B C D 5 E F [ $ $ $ $ ",
"$ $ s u v G H b I z J K L D 5 E > s $ $ $ $ ",
"M M N > ' / O j P Q R P S T : | u U M M M M ",
"M M N V W X Y Z ` y C ` Z 5 ! f  .# M M M M ",
"M M ..+.F @.! 5 H x #.H Y ! 6 > $.%.M M M M ",
"M M M &.M > *.! : w w : =.-.> ;.>.M M M M M ",
"M M M M ,.M '.).!.~.~.!.).{.M ].M M M M M M ",
"M M M M M ^./.(._.:.<._.[.}.^.M M M M M M M ",
"M M M M M M ..|.1.2.2.3.|.4.M M M M M M M M ",
"M M M M M M M M M M M M M M M M M M M M M M ",
"M M M M M M M M M M M M M M M M M M M M M M ",
"5.5.5.5.5.5.5.5.5.5.5.5.5.5.5.5.5.5.5.5.5.5.",
"6.6.6.6.6.6.6.6.6.6.6.6.6.6.6.6.6.6.6.6.6.6."};
