/* XPM */
static char * menu_inactive_xpm[] = {
"22 22 134 2",
"  	c None",
". 	c #171B1C",
"+ 	c #4E5E3D",
"@ 	c #3E4934",
"# 	c #3F4A34",
"$ 	c #3A4430",
"% 	c #242A1D",
"& 	c #11140D",
"* 	c #0A0C08",
"= 	c #242B1D",
"- 	c #2E3625",
"; 	c #080A06",
"> 	c #12170F",
", 	c #282E20",
"' 	c #12160E",
") 	c #2E3726",
"! 	c #282F21",
"~ 	c #0A0C07",
"{ 	c #2A3022",
"] 	c #2A3122",
"^ 	c #293021",
"/ 	c #272E20",
"( 	c #23291C",
"_ 	c #2D3525",
": 	c #080905",
"< 	c #22281B",
"[ 	c #2C3324",
"} 	c #2E3425",
"| 	c #2D3425",
"1 	c #2B3122",
"2 	c #22271B",
"3 	c #070905",
"4 	c #3C4732",
"5 	c #1C2217",
"6 	c #171B12",
"7 	c #303727",
"8 	c #323929",
"9 	c #323A29",
"0 	c #303827",
"a 	c #282F20",
"b 	c #151810",
"c 	c #3E4933",
"d 	c #090C07",
"e 	c #21261B",
"f 	c #292F21",
"g 	c #2E3525",
"h 	c #616961",
"i 	c #646C63",
"j 	c #656F64",
"k 	c #646C64",
"l 	c #616A62",
"m 	c #2B3223",
"n 	c #293022",
"o 	c #242A1E",
"p 	c #090B06",
"q 	c #080B06",
"r 	c #353D2D",
"s 	c #50584B",
"t 	c #646E64",
"u 	c #646D63",
"v 	c #4E5647",
"w 	c #343B2C",
"x 	c #262C1E",
"y 	c #090B07",
"z 	c #3D4832",
"A 	c #485043",
"B 	c #4A5343",
"C 	c #485141",
"D 	c #626C61",
"E 	c #444C3F",
"F 	c #2D3424",
"G 	c #3F4A33",
"H 	c #394230",
"I 	c #3E4834",
"J 	c #21271B",
"K 	c #2F3526",
"L 	c #5D665C",
"M 	c #454E3F",
"N 	c #333B28",
"O 	c #343B2A",
"P 	c #464E40",
"Q 	c #5E675E",
"R 	c #2C3323",
"S 	c #404A35",
"T 	c #3F4934",
"U 	c #1E2319",
"V 	c #161B12",
"W 	c #2B3121",
"X 	c #2F3626",
"Y 	c #313928",
"Z 	c #313828",
"` 	c #2A3121",
" .	c #151811",
"..	c #262C1F",
"+.	c #3F4935",
"@.	c #3A4330",
"#.	c #48543C",
"$.	c #070A05",
"%.	c #22281C",
"&.	c #2D3324",
"*.	c #434E38",
"=.	c #3B4431",
"-.	c #45513A",
";.	c #343D2B",
">.	c #23291D",
",.	c #272D20",
"'.	c #23281C",
").	c #444E38",
"!.	c #4D5940",
"~.	c #39422F",
"{.	c #060805",
"].	c #141710",
"^.	c #20261A",
"/.	c #272D1F",
"(.	c #131710",
"_.	c #4B573F",
":.	c #4B563F",
"<.	c #535F46",
"[.	c #252C1F",
"}.	c #12160F",
"|.	c #0A0D08",
"1.	c #13160F",
"2.	c #262C20",
"3.	c #515E44",
"4.	c #4A563F",
"5.	c #3A4331",
"6.	c #4F5B43",
"7.	c #58654C",
"8.	c #5A674D",
"9.	c #58644B",
"0.	c #4E5A43",
"a.	c #3B4432",
"b.	c #3C4532",
"c.	c #181A1A",
". . . . . . . . . . . . . . . . . . . . . . ",
"+ + + + + + + + + + + + + + + + + + + + + + ",
"@ @ @ @ @ @ @ @ @ @ @ @ @ @ @ @ @ @ @ @ @ @ ",
"# # # # # # $ % & * * & = $ # # # # # # # # ",
"# # # # # - ; > % , , % ' ; ) # # # # # # # ",
"# # # # ! ~ = , { ] ] ^ / ( ; _ # # # # # # ",
"# # # # : < , ] [ } | [ 1 , 2 3 4 # # # # # ",
"# # # 5 6 , ] [ 7 8 9 0 [ ] a b = # # # # # ",
"# # c d e f g h i j j k l m n o p # # # # # ",
"# # 4 q o ] | r s t u v w g { x y z # # # # ",
"# # c ; o ] | A u B C D E F ] x y G # # # # ",
"H H I y J f K L M N O P Q R ^ % q S H H H H ",
"H H T U V , ] W X Y Z X ` 1 !  ...+.H H H H ",
"H H @.#.$.%., 1 &.} g &.] , 2 ; *.=.H H H H ",
"H H H -.;.; >.,.f { { f , '.; H ).H H H H H ",
"H H H H !.~.{.].^././.^.(.; H _.H H H H H H ",
"H H H H H :.<.[.}.|.|.1.2.3.4.H H H H H H H ",
"H H H H H H 5.6.7.8.8.9.0.a.H H H H H H H H ",
"H H H H H H H H H H H H H H H H H H H H H H ",
"H H H H H H H H H H H H H H H H H H H H H H ",
"b.b.b.b.b.b.b.b.b.b.b.b.b.b.b.b.b.b.b.b.b.b.",
"c.c.c.c.c.c.c.c.c.c.c.c.c.c.c.c.c.c.c.c.c.c."};
