/* XPM */
static char * menu_active_xpm[] = {
"22 22 138 2",
"  	c None",
". 	c #171B1C",
"+ 	c #4E5E3D",
"@ 	c #3E4934",
"# 	c #3F4A34",
"$ 	c #3A4430",
"% 	c #242A1D",
"& 	c #11140D",
"* 	c #0A0C08",
"= 	c #242B1D",
"- 	c #2E3625",
"; 	c #080A06",
"> 	c #12170F",
", 	c #282E20",
"' 	c #12160E",
") 	c #2E3726",
"! 	c #282F21",
"~ 	c #0A0C07",
"{ 	c #2A3022",
"] 	c #2A3122",
"^ 	c #293021",
"/ 	c #272E20",
"( 	c #23291C",
"_ 	c #2D3525",
": 	c #080905",
"< 	c #22281B",
"[ 	c #2C3324",
"} 	c #2E3425",
"| 	c #2D3425",
"1 	c #2B3122",
"2 	c #22271B",
"3 	c #070905",
"4 	c #3C4732",
"5 	c #1C2217",
"6 	c #171B12",
"7 	c #272E1E",
"8 	c #2D3423",
"9 	c #2F3625",
"0 	c #2F3624",
"a 	c #272D1D",
"b 	c #282F20",
"c 	c #151810",
"d 	c #3E4933",
"e 	c #090C07",
"f 	c #21261B",
"g 	c #292F21",
"h 	c #313829",
"i 	c #D1E0E7",
"j 	c #D3E2EB",
"k 	c #D2E1E9",
"l 	c #D4E2EB",
"m 	c #D4E3EC",
"n 	c #293020",
"o 	c #293022",
"p 	c #242A1E",
"q 	c #090B06",
"r 	c #080B06",
"s 	c #40483A",
"t 	c #919C9A",
"u 	c #CBD9E1",
"v 	c #CBD9E0",
"w 	c #87928E",
"x 	c #3C4435",
"y 	c #2D3424",
"z 	c #262C1E",
"A 	c #090B07",
"B 	c #3D4832",
"C 	c #2C3323",
"D 	c #7D8782",
"E 	c #D0DEE6",
"F 	c #747E76",
"G 	c #6E776F",
"H 	c #CCDBE2",
"I 	c #707A73",
"J 	c #2B3121",
"K 	c #3F4A33",
"L 	c #394230",
"M 	c #3E4834",
"N 	c #21271B",
"O 	c #32382A",
"P 	c #C5D3D9",
"Q 	c #717B74",
"R 	c #2F3724",
"S 	c #323928",
"T 	c #737E77",
"U 	c #C9D7DE",
"V 	c #404A35",
"W 	c #3F4934",
"X 	c #1E2319",
"Y 	c #161B12",
"Z 	c #242A1A",
"` 	c #2E3525",
" .	c #313928",
"..	c #313828",
"+.	c #242B19",
"@.	c #2B3123",
"#.	c #151811",
"$.	c #262C1F",
"%.	c #3F4935",
"&.	c #3A4330",
"*.	c #48543C",
"=.	c #070A05",
"-.	c #22281C",
";.	c #2D3324",
">.	c #434E38",
",.	c #3B4431",
"'.	c #45513A",
").	c #343D2B",
"!.	c #23291D",
"~.	c #272D20",
"{.	c #23281C",
"].	c #444E38",
"^.	c #4D5940",
"/.	c #39422F",
"(.	c #060805",
"_.	c #141710",
":.	c #20261A",
"<.	c #272D1F",
"[.	c #131710",
"}.	c #4B573F",
"|.	c #4B563F",
"1.	c #535F46",
"2.	c #252C1F",
"3.	c #12160F",
"4.	c #0A0D08",
"5.	c #13160F",
"6.	c #262C20",
"7.	c #515E44",
"8.	c #4A563F",
"9.	c #3A4331",
"0.	c #4F5B43",
"a.	c #58654C",
"b.	c #5A674D",
"c.	c #58644B",
"d.	c #4E5A43",
"e.	c #3B4432",
"f.	c #3C4532",
"g.	c #181A1A",
". . . . . . . . . . . . . . . . . . . . . . ",
"+ + + + + + + + + + + + + + + + + + + + + + ",
"@ @ @ @ @ @ @ @ @ @ @ @ @ @ @ @ @ @ @ @ @ @ ",
"# # # # # # $ % & * * & = $ # # # # # # # # ",
"# # # # # - ; > % , , % ' ; ) # # # # # # # ",
"# # # # ! ~ = , { ] ] ^ / ( ; _ # # # # # # ",
"# # # # : < , ] [ } | [ 1 , 2 3 4 # # # # # ",
"# # # 5 6 , ] 7 8 9 0 8 a ] b c = # # # # # ",
"# # d e f g h i j k k l m n o p q # # # # # ",
"# # 4 r p ] | s t u v w x y { z A B # # # # ",
"# # d ; p ] C D E F G H I J ] z A K # # # # ",
"L L M A N g O P Q R S T U ^ ^ % r V L L L L ",
"L L W X Y , ] Z `  ...` +.@.! #.$.%.L L L L ",
"L L &.*.=.-., 1 ;.} ` ;.] , 2 ; >.,.L L L L ",
"L L L '.).; !.~.g { { g , {.; L ].L L L L L ",
"L L L L ^./.(._.:.<.<.:.[.; L }.L L L L L L ",
"L L L L L |.1.2.3.4.4.5.6.7.8.L L L L L L L ",
"L L L L L L 9.0.a.b.b.c.d.e.L L L L L L L L ",
"L L L L L L L L L L L L L L L L L L L L L L ",
"L L L L L L L L L L L L L L L L L L L L L L ",
"f.f.f.f.f.f.f.f.f.f.f.f.f.f.f.f.f.f.f.f.f.f.",
"g.g.g.g.g.g.g.g.g.g.g.g.g.g.g.g.g.g.g.g.g.g."};
