/* XPM */
static char * menu_pressed_xpm[] = {
"22 22 125 2",
"  	c None",
". 	c #171B1C",
"+ 	c #4E5E3D",
"@ 	c #3E4934",
"# 	c #3F4A34",
"$ 	c #3E4933",
"% 	c #2B3323",
"& 	c #1A1F15",
"* 	c #11140D",
"= 	c #3D4833",
"- 	c #343E2B",
"; 	c #080A06",
"> 	c #0A0C0A",
", 	c #0F1314",
"' 	c #12181B",
") 	c #13181A",
"! 	c #101415",
"~ 	c #363F2C",
"{ 	c #303927",
"] 	c #121618",
"^ 	c #13171A",
"/ 	c #14181A",
"( 	c #111516",
"_ 	c #070906",
": 	c #353F2C",
"< 	c #090C07",
"[ 	c #111517",
"} 	c #15181A",
"| 	c #16181A",
"1 	c #090B07",
"2 	c #3C4732",
"3 	c #20261A",
"4 	c #0C100F",
"5 	c #14181B",
"6 	c #14161A",
"7 	c #15161A",
"8 	c #15171A",
"9 	c #0C0E0D",
"0 	c #272F20",
"a 	c #171A1A",
"b 	c #4B682A",
"c 	c #4F6E2B",
"d 	c #506F2B",
"e 	c #4F6D2B",
"f 	c #4A682A",
"g 	c #121719",
"h 	c #0A0D08",
"i 	c #090C06",
"j 	c #121619",
"k 	c #1A1F1B",
"l 	c #90D23F",
"m 	c #99DF43",
"n 	c #9FE944",
"o 	c #9FE844",
"p 	c #99DE42",
"q 	c #93D741",
"r 	c #131719",
"s 	c #080A07",
"t 	c #3D4832",
"u 	c #121118",
"v 	c #8DCC3E",
"w 	c #92D340",
"x 	c #99DF42",
"y 	c #93D640",
"z 	c #191C1B",
"A 	c #3E4A33",
"B 	c #394230",
"C 	c #3E4833",
"D 	c #191D1B",
"E 	c #8ECE3F",
"F 	c #98DE42",
"G 	c #21281D",
"H 	c #22291D",
"I 	c #9DE543",
"J 	c #8ECF3F",
"K 	c #14151A",
"L 	c #3F4935",
"M 	c #1C2117",
"N 	c #0D1111",
"O 	c #161A1A",
"P 	c #608931",
"Q 	c #1E251D",
"R 	c #17191A",
"S 	c #17181A",
"T 	c #1B1F1C",
"U 	c #5E8530",
"V 	c #121519",
"W 	c #0D1010",
"X 	c #242A1E",
"Y 	c #3F4A35",
"Z 	c #3A4331",
"` 	c #47523B",
" .	c #080A05",
"..	c #434E38",
"+.	c #3B4532",
"@.	c #46513B",
"#.	c #2E3627",
"$.	c #070A06",
"%.	c #353D2C",
"&.	c #454F39",
"*.	c #4D5940",
"=.	c #38402F",
"-.	c #050704",
";.	c #0C100D",
">.	c #0C0F0D",
",.	c #060805",
"'.	c #4D5941",
").	c #4A553E",
"!.	c #4F5B43",
"~.	c #2D3326",
"{.	c #11150D",
"].	c #070805",
"^.	c #11150E",
"/.	c #2D3426",
"(.	c #4F5B42",
"_.	c #49553E",
":.	c #3D4734",
"<.	c #4F5A43",
"[.	c #57644A",
"}.	c #5D6A50",
"|.	c #5D6A4F",
"1.	c #57634A",
"2.	c #4E5A42",
"3.	c #3C4532",
"4.	c #181A1A",
". . . . . . . . . . . . . . . . . . . . . . ",
"+ + + + + + + + + + + + + + + + + + + + + + ",
"@ @ @ @ @ @ @ @ @ @ @ @ @ @ @ @ @ @ @ @ @ @ ",
"# # # # # # $ % & * * & % = # # # # # # # # ",
"# # # # # - ; > , ' ) ! > ; ~ # # # # # # # ",
"# # # # { ; ] ^ / / / / ^ ( _ : # # # # # # ",
"# # # # < [ ) / } | | } / ^ ( 1 2 # # # # # ",
"# # # 3 4 5 / 6 7 8 8 6 6 / 5 9 0 # # # # # ",
"# # $ < [ / a b c d e e f } / g h # # # # # ",
"# # 2 i j } k l m n o p q 8 / r s t # # # # ",
"# # $ 1 j } } u v w x y z | / r s A # # # # ",
"B B C 1 [ / D E F G H I J K / ^ ; L B B B B ",
"B B L M N ) O P Q R S T U V / W X Y B B B B ",
"B B Z `  .j ) } } | | } / ^ ] ; ..+.B B B B ",
"B B B @.#.s ^ ^ / / / / ^ j $.%.&.B B B B B ",
"B B B B *.=.-.;.j 5 5 g >.,.B '.B B B B B B ",
"B B B B B ).!.~.{.,.].^./.(._.B B B B B B B ",
"B B B B B B :.<.[.}.|.1.2.:.B B B B B B B B ",
"B B B B B B B B B B B B B B B B B B B B B B ",
"B B B B B B B B B B B B B B B B B B B B B B ",
"3.3.3.3.3.3.3.3.3.3.3.3.3.3.3.3.3.3.3.3.3.3.",
"4.4.4.4.4.4.4.4.4.4.4.4.4.4.4.4.4.4.4.4.4.4."};
