/* XPM */
static char * menu_pressed_xpm[] = {
"22 22 139 2",
"  	c None",
". 	c #171B1C",
"+ 	c #4E5E3D",
"@ 	c #3E4934",
"# 	c #3F4934",
"$ 	c #3F4A34",
"% 	c #38422E",
"& 	c #262D1F",
"* 	c #12160F",
"= 	c #0A0C09",
"- 	c #12170F",
"; 	c #262D1E",
"> 	c #39432F",
", 	c #282F20",
"' 	c #0C0E08",
") 	c #0E1110",
"! 	c #111416",
"~ 	c #111518",
"{ 	c #121618",
"] 	c #111516",
"^ 	c #0B0D08",
"/ 	c #2A3122",
"( 	c #2F3727",
"_ 	c #090B08",
": 	c #111618",
"< 	c #13181A",
"[ 	c #14181A",
"} 	c #25311F",
"| 	c #1D251D",
"1 	c #13161A",
"2 	c #13171A",
"3 	c #111517",
"4 	c #080A07",
"5 	c #131619",
"6 	c #1E261D",
"7 	c #91D340",
"8 	c #8FD03F",
"9 	c #26321F",
"0 	c #0B0E08",
"a 	c #3A4530",
"b 	c #1C2216",
"c 	c #0C0F0D",
"d 	c #13181B",
"e 	c #20281E",
"f 	c #9AE042",
"g 	c #7CB23A",
"h 	c #8BCA3E",
"i 	c #8ECE3F",
"j 	c #1D231C",
"k 	c #0D1110",
"l 	c #242B1E",
"m 	c #3D4732",
"n 	c #10130C",
"o 	c #191E1B",
"p 	c #8AC83E",
"q 	c #7FB63A",
"r 	c #313F22",
"s 	c #232A1E",
"t 	c #7EB53A",
"u 	c #95D941",
"v 	c #111219",
"w 	c #0E110B",
"x 	c #3A4430",
"y 	c #0D100A",
"z 	c #14181B",
"A 	c #15181A",
"B 	c #16191A",
"C 	c #374924",
"D 	c #1B1D1B",
"E 	c #8CCB3E",
"F 	c #97DC42",
"G 	c #272F1E",
"H 	c #394D24",
"I 	c #131419",
"J 	c #121518",
"K 	c #090B07",
"L 	c #3C4631",
"M 	c #0E110A",
"N 	c #15171A",
"O 	c #242D1E",
"P 	c #86C23D",
"Q 	c #8CCA3E",
"R 	c #1E241C",
"S 	c #080B07",
"T 	c #394230",
"U 	c #3B4531",
"V 	c #10140C",
"W 	c #1A1F1B",
"X 	c #85C13C",
"Y 	c #21271D",
"Z 	c #101416",
"` 	c #0E110C",
" .	c #3C4534",
"..	c #1F2418",
"+.	c #161B1B",
"@.	c #51722D",
"#.	c #1F251C",
"$.	c #151619",
"%.	c #26301F",
"&.	c #577C2E",
"*.	c #0C1010",
"=.	c #272E20",
"-.	c #414B36",
";.	c #3B4431",
">.	c #434D38",
",.	c #070906",
"'.	c #14171A",
").	c #16181A",
"!.	c #0C0F0A",
"~.	c #424D37",
"{.	c #3B4532",
"].	c #46513A",
"^.	c #363F2D",
"/.	c #090C08",
"(.	c #080A06",
"_.	c #313929",
":.	c #444E39",
"<.	c #4A553E",
"[.	c #070905",
"}.	c #121617",
"|.	c #0B0E0D",
"1.	c #3D4632",
"2.	c #4B563F",
"3.	c #394330",
"4.	c #4B5740",
"5.	c #4E5A42",
"6.	c #262C1F",
"7.	c #151810",
"8.	c #0F130C",
"9.	c #141810",
"0.	c #4C5740",
"a.	c #4B573F",
"b.	c #3D4734",
"c.	c #49543E",
"d.	c #4F5B44",
"e.	c #515D45",
"f.	c #4F5B43",
"g.	c #3C4532",
"h.	c #181A1A",
". . . . . . . . . . . . . . . . . . . . . . ",
"+ + + + + + + + + + + + + + + + + + + + + + ",
"@ @ @ @ @ @ @ @ @ # # @ @ @ @ @ @ @ @ @ @ @ ",
"$ $ $ $ $ $ % & * = = - ; > $ $ $ $ $ $ $ $ ",
"$ $ $ $ $ , ' ) ! ~ { ] ) ^ / $ $ $ $ $ $ $ ",
"$ $ $ $ ( _ : < [ } | 1 2 3 _ / $ $ $ $ $ $ ",
"$ $ $ > 4 ] [ 5 6 7 8 9 [ [ : 0 a $ $ $ $ $ ",
"$ $ $ b c d [ e f g h i j [ 2 k l $ $ $ $ $ ",
"$ $ m n : [ o p q r s t u v [ ! w $ $ $ $ $ ",
"$ $ x y z A B C D E F G H I [ J K $ $ $ $ $ ",
"$ $ L M d A N O h P Q h R N [ : S $ $ $ $ $ ",
"T T U V 3 [ W X u Y D h F I [ Z `  .T T T T ",
"T T # ..c z +.@.#.$.B %.&.1 < *.=.-.T T T T ",
"T T ;.>.,.3 2 '.A ).).A '.[ { !.~.{.T T T T ",
"T T T ].^./.3 z [ A A [ z Z (._.:.T T T T T ",
"T T T T <.T [.c 3 d z }.|.4 1.2.3.T T T T T ",
"T T T T T 4.5.6.7.n 8.9.6.0.a.T T T T T T T ",
"T T T T T T b.c.d.e.e.f.<.b.T T T T T T T T ",
"T T T T T T T T T T T T T T T T T T T T T T ",
"T T T T T T T T T T T T T T T T T T T T T T ",
"g.g.g.g.g.g.g.g.g.g.g.g.g.g.g.g.g.g.g.g.g.g.",
"h.h.h.h.h.h.h.h.h.h.h.h.h.h.h.h.h.h.h.h.h.h."};
