/* XPM */
static char * menu_pressed_xpm[] = {
"22 22 125 2",
"  	c None",
". 	c #171B1C",
"+ 	c #4E5E3D",
"@ 	c #3E4934",
"# 	c #3F4A34",
"$ 	c #3A4430",
"% 	c #242B1D",
"& 	c #11140D",
"* 	c #090B08",
"= 	c #090C08",
"- 	c #11150D",
"; 	c #2E3625",
"> 	c #080A06",
", 	c #0C0F0E",
"' 	c #121719",
") 	c #14181B",
"! 	c #131719",
"~ 	c #0C0E0D",
"{ 	c #2E3726",
"] 	c #282F21",
"^ 	c #090B07",
"/ 	c #121619",
"( 	c #13171A",
"_ 	c #14181A",
": 	c #2D3525",
"< 	c #090B05",
"[ 	c #111618",
"} 	c #13181A",
"| 	c #15181A",
"1 	c #16181A",
"2 	c #111517",
"3 	c #080905",
"4 	c #3C4732",
"5 	c #1C2217",
"6 	c #0D1110",
"7 	c #14161A",
"8 	c #15171A",
"9 	c #16171A",
"0 	c #15161A",
"a 	c #0D100F",
"b 	c #3E4933",
"c 	c #090C07",
"d 	c #16191A",
"e 	c #3F5726",
"f 	c #445D28",
"g 	c #445E28",
"h 	c #445C27",
"i 	c #435C27",
"j 	c #3E5626",
"k 	c #090B06",
"l 	c #090C06",
"m 	c #1A1F1B",
"n 	c #98DF42",
"o 	c #9EE844",
"p 	c #9FE844",
"q 	c #9EE744",
"r 	c #9DE543",
"s 	c #080A07",
"t 	c #3D4832",
"u 	c #121118",
"v 	c #8FCF3F",
"w 	c #8AC73D",
"x 	c #90D140",
"y 	c #91D340",
"z 	c #181A1A",
"A 	c #3F4A33",
"B 	c #394230",
"C 	c #3E4834",
"D 	c #191D1B",
"E 	c #95DA41",
"F 	c #20241D",
"G 	c #1E221C",
"H 	c #93D740",
"I 	c #95D941",
"J 	c #141519",
"K 	c #080B06",
"L 	c #404A35",
"M 	c #3F4934",
"N 	c #1E2319",
"O 	c #0D1010",
"P 	c #14191A",
"Q 	c #5D8430",
"R 	c #1B1F1B",
"S 	c #171A1A",
"T 	c #17191A",
"U 	c #14151A",
"V 	c #567B2E",
"W 	c #111319",
"X 	c #262C1F",
"Y 	c #3F4935",
"Z 	c #3A4330",
"` 	c #48543C",
" .	c #080B05",
"..	c #121618",
"+.	c #434E38",
"@.	c #3B4431",
"#.	c #45513A",
"$.	c #343D2B",
"%.	c #070906",
"&.	c #444E38",
"*.	c #4D5940",
"=.	c #39422F",
"-.	c #060805",
";.	c #111516",
">.	c #13181B",
",.	c #13171B",
"'.	c #101417",
").	c #4B573F",
"!.	c #4B563F",
"~.	c #535F46",
"{.	c #252C1F",
"].	c #13170F",
"^.	c #0C0F09",
"/.	c #14170F",
"(.	c #262C20",
"_.	c #515E44",
":.	c #4A563F",
"<.	c #3A4331",
"[.	c #4F5B43",
"}.	c #58654C",
"|.	c #5A674D",
"1.	c #58644B",
"2.	c #4E5A43",
"3.	c #3B4432",
"4.	c #3C4532",
". . . . . . . . . . . . . . . . . . . . . . ",
"+ + + + + + + + + + + + + + + + + + + + + + ",
"@ @ @ @ @ @ @ @ @ @ @ @ @ @ @ @ @ @ @ @ @ @ ",
"# # # # # # $ % & * = - % $ # # # # # # # # ",
"# # # # # ; > , ' ) ) ! ~ > { # # # # # # # ",
"# # # # ] ^ / ( _ _ _ _ ( / > : # # # # # # ",
"# # # # < [ } | | 1 1 | _ ( 2 3 4 # # # # # ",
"# # # 5 6 } _ 7 8 8 9 0 7 _ _ a % # # # # # ",
"# # b c 2 _ d e f g h i j | _ ( k # # # # # ",
"# # 4 l / _ m n o p p q r 8 _ ( s t # # # # ",
"# # b ^ / | | u v w x y z 1 _ ! s A # # # # ",
"B B C ^ 2 _ D E v F G H I J _ / K L B B B B ",
"B B M N O _ P Q R S T U V W _ a X Y B B B B ",
"B B Z `  ...( _ | | 1 | _ ( 2 > +.@.B B B B ",
"B B B #.$.%.' ( _ _ _ _ ( ..%.B &.B B B B B ",
"B B B B *.=.-., ;.>.,.'., > B ).B B B B B B ",
"B B B B B !.~.{.].^.^./.(._.:.B B B B B B B ",
"B B B B B B <.[.}.|.|.1.2.3.B B B B B B B B ",
"B B B B B B B B B B B B B B B B B B B B B B ",
"B B B B B B B B B B B B B B B B B B B B B B ",
"4.4.4.4.4.4.4.4.4.4.4.4.4.4.4.4.4.4.4.4.4.4.",
"z z z z z z z z z z z z z z z z z z z z z z "};
