/* XPM */
static char * menu_active_xpm[] = {
"22 22 133 2",
"  	c None",
". 	c #171B1C",
"+ 	c #4E5E3D",
"@ 	c #3E4934",
"# 	c #3F4934",
"$ 	c #3F4A34",
"% 	c #3A4430",
"& 	c #242B1D",
"* 	c #11140D",
"= 	c #0A0C08",
"- 	c #11150D",
"; 	c #2E3626",
"> 	c #080A06",
", 	c #12160E",
"' 	c #242A1D",
") 	c #272D20",
"! 	c #272E20",
"~ 	c #12160F",
"{ 	c #2C3424",
"] 	c #090A06",
"^ 	c #23291C",
"/ 	c #293021",
"( 	c #6A746E",
"_ 	c #677069",
": 	c #292F21",
"< 	c #282E20",
"[ 	c #0A0C07",
"} 	c #3C4732",
"| 	c #070905",
"1 	c #21271B",
"2 	c #292E1F",
"3 	c #666E68",
"4 	c #CDDBE3",
"5 	c #CEDDE5",
"6 	c #2A3122",
"7 	c #22271B",
"8 	c #141811",
"9 	c #282F20",
"0 	c #282F1F",
"a 	c #5F6961",
"b 	c #D1E0E8",
"c 	c #6E7770",
"d 	c #6B756D",
"e 	c #D2E0E8",
"f 	c #616B63",
"g 	c #282E21",
"h 	c #161A12",
"i 	c #1D2318",
"j 	c #293022",
"k 	c #2B3122",
"l 	c #C9D7DE",
"m 	c #75807A",
"n 	c #737D77",
"o 	c #747F78",
"p 	c #6A756C",
"q 	c #C0CDD3",
"r 	c #32392A",
"s 	c #21261B",
"t 	c #090C07",
"u 	c #3E4933",
"v 	c #3D4732",
"w 	c #090B07",
"x 	c #262C1E",
"y 	c #2A3022",
"z 	c #2E3525",
"A 	c #313828",
"B 	c #737C75",
"C 	c #CBD9E1",
"D 	c #CCDAE2",
"E 	c #7D8782",
"F 	c #323A29",
"G 	c #2D3425",
"H 	c #242A1E",
"I 	c #080B06",
"J 	c #2A3123",
"K 	c #2B3121",
"L 	c #717B75",
"M 	c #6D786E",
"N 	c #747E77",
"O 	c #D0DEE6",
"P 	c #7B8681",
"Q 	c #2C3323",
"R 	c #394230",
"S 	c #3F4935",
"T 	c #737D76",
"U 	c #323928",
"V 	c #2F3724",
"W 	c #727C75",
"X 	c #C5D3D9",
"Y 	c #323829",
"Z 	c #3E4834",
"` 	c #252B1E",
" .	c #151911",
"..	c #282F21",
"+.	c #242B19",
"@.	c #2F3525",
"#.	c #313928",
"$.	c #232A1A",
"%.	c #1F251A",
"&.	c #3B4432",
"*.	c #434E38",
"=.	c #22271A",
"-.	c #2D3324",
";.	c #2E3425",
">.	c #48543C",
",.	c #3A4330",
"'.	c #444E39",
").	c #22281C",
"!.	c #23291D",
"~.	c #353E2C",
"{.	c #45503A",
"].	c #4C573F",
"^.	c #080905",
"/.	c #141710",
"(.	c #20261A",
"_.	c #272D1F",
":.	c #070805",
"<.	c #4C5840",
"[.	c #4A563F",
"}.	c #525E45",
"|.	c #262C20",
"1.	c #13160F",
"2.	c #0A0D08",
"3.	c #0B0D08",
"4.	c #252C20",
"5.	c #535F46",
"6.	c #4F5B43",
"7.	c #58644B",
"8.	c #5A674D",
"9.	c #58654B",
"0.	c #3A4331",
"a.	c #3C4532",
"b.	c #181A1A",
". . . . . . . . . . . . . . . . . . . . . . ",
"+ + + + + + + + + + + + + + + + + + + + + + ",
"@ @ @ @ @ @ @ @ @ # # @ @ @ @ @ @ @ @ @ @ @ ",
"$ $ $ $ $ $ % & * = = - & % $ $ $ $ $ $ $ $ ",
"$ $ $ $ $ ; > , ' ) ! ' ~ > ; $ $ $ $ $ $ $ ",
"$ $ $ $ { ] ^ ! / ( _ : < ' [ / $ $ $ $ $ $ ",
"$ $ $ } | 1 < 2 3 4 5 ( 6 < 7 > $ $ $ $ $ $ ",
"$ $ $ ' 8 9 0 a b c d e f / g h i $ $ $ $ $ ",
"$ $ $ > ' j k l m n o p q r : s t u $ $ $ $ ",
"$ $ v w x y z A B C D E F G 6 H I } $ $ $ $ ",
"$ $ u w x J K L 4 M N O P Q 6 H > u $ $ $ $ ",
"R R S > ' / 6 l T U V W X Y : 1 w Z R R R R ",
"R R S `  ...k +.@.A #.z $.6 < h %.# R R R R ",
"R R &.*.I =.< 6 -.z ;.-.k < 7 > >.,.R R R R ",
"R R R '.R > ).< : y y : ) !.> ~.{.R R R R R ",
"R R R R ].R ^./.(._._.(./.:.R <.R R R R R R ",
"R R R R R [.}.|.1.2.3.1.4.5.[.R R R R R R R ",
"R R R R R R &.6.7.8.8.9.6.0.R R R R R R R R ",
"R R R R R R R R R R R R R R R R R R R R R R ",
"R R R R R R R R R R R R R R R R R R R R R R ",
"a.a.a.a.a.a.a.a.a.a.a.a.a.a.a.a.a.a.a.a.a.a.",
"b.b.b.b.b.b.b.b.b.b.b.b.b.b.b.b.b.b.b.b.b.b."};
