/* XPM */
static char * title_4_inactive_xpm[] = {
"10 22 9 1",
" 	c None",
".	c #171B1C",
"+	c #4E5E3D",
"@	c #3E4934",
"#	c #3F4934",
"$	c #3F4A34",
"%	c #394230",
"&	c #3C4532",
"*	c #181A1A",
"..........",
"++++++++++",
"@@@@@@@@@#",
"$$$$$$$$$$",
"$$$$$$$$$$",
"$$$$$$$$$$",
"$$$$$$$$$$",
"$$$$$$$$$$",
"$$$$$$$$$$",
"$$$$$$$$$$",
"$$$$$$$$$$",
"%%%%%%%%%%",
"%%%%%%%%%%",
"%%%%%%%%%%",
"%%%%%%%%%%",
"%%%%%%%%%%",
"%%%%%%%%%%",
"%%%%%%%%%%",
"%%%%%%%%%%",
"%%%%%%%%%%",
"&&&&&&&&&&",
"**********"};
