/* XPM */
static char * top_left_inactive_xpm[] = {
"19 22 24 1",
" 	c None",
".	c #171B1B",
"+	c #171B1C",
"@	c #202721",
"#	c #000000",
"$	c #4C5C3C",
"%	c #4E5E3D",
"&	c #465338",
"*	c #3F4B34",
"=	c #3F4934",
"-	c #3E4934",
";	c #15191B",
">	c #404B34",
",	c #3F4A34",
"'	c #16191B",
")	c #424E36",
"!	c #434E36",
"~	c #15191A",
"{	c #3B4531",
"]	c #394230",
"^	c #3C4532",
"/	c #121518",
"(	c #191B1A",
"_	c #181A1A",
"   .+++++++++++++++",
" @#$%%%%%%%%%%%%%%%",
" #&*=--------------",
";>,,,,,,,,,,,,,,,,,",
"'),,,,,,,,,,,,,,,,,",
"'),,,,,,,,,,,,,,,,,",
"'),,,,,,,,,,,,,,,,,",
"'),,,,,,,,,,,,,,,,,",
"'),,,,,,,,,,,,,,,,,",
"'),,,,,,,,,,,,,,,,,",
"'!,,,,,,,,,,,,,,,,,",
"~{]]]]]]]]]]]]]]]]]",
"~^]]]]]]]]]]]]]]]]]",
"~^]]]]]]]]]]]]]]]]]",
"~^]]]]]]]]]]]]]]]]]",
"~^]]]]]]]]]]]]]]]]]",
"~^]]]]]]]]]]]]]]]]]",
"~^]]]]]]]]]]]]]]]]]",
"~^]]]]]]]]]]]]]]]]]",
"~^]]]]]]]]]]]]]]]]]",
";=^^^^^^^^^^^^^^^^^",
"/(_________________"};
