/* XPM */
static char * top_right_inactive_xpm[] = {
"19 21 3 1",
" 	c None",
".	c #000000",
"+	c #0A0A0A",
"...................",
"++++++++++++++++++.",
"++++++++++++++++++.",
"++++++++++++++++++.",
"++++++++++++++++++.",
"++++++++++++++++++.",
"++++++++++++++++++.",
"++++++++++++++++++.",
"++++++++++++++++++.",
"++++++++++++++++++.",
"++++++++++++++++++.",
"++++++++++++++++++.",
"++++++++++++++++++.",
"++++++++++++++++++.",
"++++++++++++++++++.",
"++++++++++++++++++.",
"++++++++++++++++++.",
"++++++++++++++++++.",
"++++++++++++++++++.",
"++++++++++++++++++.",
"++++++++++++++++++."};
