/* XPM */
static char * close_pressed_xpm[] = {
"22 22 3 1",
" 	c None",
".	c #1E1E1E",
"+	c #C95D59",
"......................",
"......................",
"......................",
"......................",
"......................",
"......................",
"......................",
"......................",
".......+....+.........",
"......+++..+++........",
".......++++++.........",
"........++++..........",
"........++++..........",
".......++++++.........",
"......+++..+++........",
".......+....+.........",
"......................",
"......................",
"......................",
"......................",
"......................",
"......................"};
