/* XPM */
static char * hide_active_xpm[] = {
"22 22 4 1",
" 	c None",
".	c #1E1E1E",
"+	c #000000",
"@	c #8E8E8E",
"...................+++",
"......................",
"......................",
"......................",
"......................",
"......................",
"......................",
"......................",
"......................",
"......................",
"......................",
".......@@@@@@@@.......",
".......@@@@@@@@.......",
"......................",
"......................",
"......................",
"......................",
"......................",
"......................",
"......................",
"......................",
"......................"};
